<svg version="1.1" viewBox="0.0 0.0 367.88188976377955 100.0" fill="none" stroke="none" stroke-linecap="square" stroke-miterlimit="10" xmlns:xlink="http://www.w3.org/1999/xlink" xmlns="http://www.w3.org/2000/svg"><clipPath id="p.0"><path d="m0 0l367.8819 0l0 100.0l-367.8819 0l0 -100.0z" clip-rule="nonzero"/></clipPath><g clip-path="url(#p.0)"><path fill="#000000" fill-opacity="0.0" d="m0 0l367.8819 0l0 100.0l-367.8819 0z" fill-rule="evenodd"/><path fill="#462033" d="m16.737534 12.275591l120.7874 0l0 48.0l-120.7874 0z" fill-rule="evenodd"/><path stroke="#000000" stroke-width="1.0" stroke-linejoin="round" stroke-linecap="butt" d="m16.737534 12.275591l120.7874 0l0 48.0l-120.7874 0z" fill-rule="evenodd"/><path fill="#f7f98b" d="m137.52493 12.275591l123.90552 0l0 48.0l-123.90552 0z" fill-rule="evenodd"/><path stroke="#000000" stroke-width="1.0" stroke-linejoin="round" stroke-linecap="butt" d="m137.52493 12.275591l123.90552 0l0 48.0l-123.90552 0z" fill-rule="evenodd"/><path fill="#326419" d="m261.43045 12.275591l35.275574 0l0 48.0l-35.275574 0z" fill-rule="evenodd"/><path stroke="#000000" stroke-width="1.0" stroke-linejoin="round" stroke-linecap="butt" d="m261.43045 12.275591l35.275574 0l0 48.0l-35.275574 0z" fill-rule="evenodd"/><path fill="#f98824" d="m293.5958 12.275591l12.472443 0l0 48.0l-12.472443 0z" fill-rule="evenodd"/><path stroke="#000000" stroke-width="1.0" stroke-linejoin="round" stroke-linecap="butt" d="m293.5958 12.275591l12.472443 0l0 48.0l-12.472443 0z" fill-rule="evenodd"/><path fill="#326419" d="m306.06824 12.275591l44.566925 0l0 48.0l-44.566925 0z" fill-rule="evenodd"/><path stroke="#000000" stroke-width="1.0" stroke-linejoin="round" stroke-linecap="butt" d="m306.06824 12.275591l44.566925 0l0 48.0l-44.566925 0z" fill-rule="evenodd"/></g></svg>