<svg version="1.1" viewBox="0.0 0.0 608.3359580052494 100.0" fill="none" stroke="none" stroke-linecap="square" stroke-miterlimit="10" xmlns:xlink="http://www.w3.org/1999/xlink" xmlns="http://www.w3.org/2000/svg"><clipPath id="p.0"><path d="m0 0l608.33594 0l0 100.0l-608.33594 0l0 -100.0z" clip-rule="nonzero"/></clipPath><g clip-path="url(#p.0)"><path fill="#000000" fill-opacity="0.0" d="m0 0l608.33594 0l0 100.0l-608.33594 0z" fill-rule="evenodd"/><path fill="#462033" d="m16.737534 12.275591l177.6063 0l0 48.0l-177.6063 0z" fill-rule="evenodd"/><path stroke="#000000" stroke-width="1.0" stroke-linejoin="round" stroke-linecap="butt" d="m16.737534 12.275591l177.6063 0l0 48.0l-177.6063 0z" fill-rule="evenodd"/><path fill="#f7f98b" d="m194.34383 12.275591l5.7637787 0l0 48.0l-5.7637787 0z" fill-rule="evenodd"/><path stroke="#000000" stroke-width="1.0" stroke-linejoin="round" stroke-linecap="butt" d="m194.34383 12.275591l5.7637787 0l0 48.0l-5.7637787 0z" fill-rule="evenodd"/><path fill="#a41623" d="m200.1076 12.275591l18.236221 0l0 48.0l-18.236221 0z" fill-rule="evenodd"/><path stroke="#000000" stroke-width="1.0" stroke-linejoin="round" stroke-linecap="butt" d="m200.1076 12.275591l18.236221 0l0 48.0l-18.236221 0z" fill-rule="evenodd"/><path fill="#f98824" d="m218.34383 12.275591l12.472443 0l0 48.0l-12.472443 0z" fill-rule="evenodd"/><path stroke="#000000" stroke-width="1.0" stroke-linejoin="round" stroke-linecap="butt" d="m218.34383 12.275591l12.472443 0l0 48.0l-12.472443 0z" fill-rule="evenodd"/><path fill="#326419" d="m230.81627 12.275591l84.47246 0l0 48.0l-84.47246 0z" fill-rule="evenodd"/><path stroke="#000000" stroke-width="1.0" stroke-linejoin="round" stroke-linecap="butt" d="m230.81627 12.275591l84.47246 0l0 48.0l-84.47246 0z" fill-rule="evenodd"/><path fill="#f98824" d="m315.28873 12.275591l12.472443 0l0 48.0l-12.472443 0z" fill-rule="evenodd"/><path stroke="#000000" stroke-width="1.0" stroke-linejoin="round" stroke-linecap="butt" d="m315.28873 12.275591l12.472443 0l0 48.0l-12.472443 0z" fill-rule="evenodd"/><path fill="#326419" d="m324.60367 12.275591l96.0 0l0 48.0l-96.0 0z" fill-rule="evenodd"/><path stroke="#000000" stroke-width="1.0" stroke-linejoin="round" stroke-linecap="butt" d="m324.60367 12.275591l96.0 0l0 48.0l-96.0 0z" fill-rule="evenodd"/><path fill="#a41623" d="m420.60367 12.275591l18.236237 0l0 48.0l-18.236237 0z" fill-rule="evenodd"/><path stroke="#000000" stroke-width="1.0" stroke-linejoin="round" stroke-linecap="butt" d="m420.60367 12.275591l18.236237 0l0 48.0l-18.236237 0z" fill-rule="evenodd"/><path fill="#f98824" d="m438.8399 12.275591l24.0 0l0 48.0l-24.0 0z" fill-rule="evenodd"/><path stroke="#000000" stroke-width="1.0" stroke-linejoin="round" stroke-linecap="butt" d="m438.8399 12.275591l24.0 0l0 48.0l-24.0 0z" fill-rule="evenodd"/><path fill="#30b4c5" d="m462.55118 12.275591l24.0 0l0 48.0l-24.0 0z" fill-rule="evenodd"/><path stroke="#000000" stroke-width="1.0" stroke-linejoin="round" stroke-linecap="butt" d="m462.55118 12.275591l24.0 0l0 48.0l-24.0 0z" fill-rule="evenodd"/><path fill="#462033" d="m564.31494 12.275591l24.0 0l0 48.0l-24.0 0z" fill-rule="evenodd"/><path stroke="#000000" stroke-width="1.0" stroke-linejoin="round" stroke-linecap="butt" d="m564.31494 12.275591l24.0 0l0 48.0l-24.0 0z" fill-rule="evenodd"/><path fill="#f7f98b" d="m486.55118 12.275591l77.76376 0l0 48.0l-77.76376 0z" fill-rule="evenodd"/><path stroke="#000000" stroke-width="1.0" stroke-linejoin="round" stroke-linecap="butt" d="m486.55118 12.275591l77.76376 0l0 48.0l-77.76376 0z" fill-rule="evenodd"/></g></svg>